<?xml version="1.0" standalone="no"?>
<!DOCTYPE svg PUBLIC "-//W3C//DTD SVG 20010904//EN"
 "http://www.w3.org/TR/2001/REC-SVG-20010904/DTD/svg10.dtd">
<svg version="1.0" xmlns="http://www.w3.org/2000/svg"
 width="1174.000000pt" height="214.000000pt" viewBox="0 0 1174.000000 214.000000"
 preserveAspectRatio="xMidYMid meet">
<metadata>
Created by potrace 1.15, written by Peter Selinger 2001-2017
</metadata>
<g transform="translate(0.000000,214.000000) scale(0.100000,-0.100000)"
fill="#000000" stroke="none">
<path d="M1771 1936 c-7 -8 -27 -17 -46 -20 -19 -4 -35 -11 -35 -16 0 -6 -5
-10 -10 -10 -21 0 -87 -64 -125 -120 -63 -92 -106 -201 -136 -337 -27 -125
-38 -495 -20 -653 29 -241 102 -422 219 -538 24 -23 50 -42 58 -42 8 0 14 -7
14 -15 0 -8 14 -17 35 -21 19 -3 38 -10 41 -15 7 -12 221 -12 228 0 3 5 22 12
41 15 21 4 35 13 35 21 0 8 7 15 15 15 15 0 94 76 133 129 31 41 87 180 111
274 34 131 44 264 38 506 -7 279 -26 386 -100 551 -45 102 -149 230 -187 230
-5 0 -10 4 -10 10 0 5 -16 12 -36 16 -19 4 -38 13 -41 20 -7 20 -206 20 -222
0z m195 -369 c15 -12 27 -24 51 -51 24 -27 63 -138 78 -222 19 -111 20 -380 1
-494 -8 -47 -25 -113 -38 -147 -26 -67 -93 -152 -121 -153 -9 0 -26 -6 -37
-12 -16 -10 -24 -10 -40 0 -11 6 -28 12 -37 12 -28 1 -95 86 -121 153 -13 34
-30 100 -38 147 -19 114 -18 383 1 494 15 84 53 192 78 222 35 42 60 61 88 67
36 8 119 -2 135 -16z"/>
<path d="M140 1040 l0 -870 115 0 115 0 1 613 1 612 22 -95 c13 -52 54 -223
91 -380 37 -157 75 -316 85 -355 l17 -70 83 0 83 0 17 70 c10 39 48 198 85
355 37 157 78 328 91 380 l22 95 1 -612 1 -613 115 0 115 0 0 870 0 870 -158
0 -157 0 -23 -97 c-13 -54 -41 -170 -62 -258 -36 -147 -83 -348 -112 -470 -12
-53 -28 -82 -28 -51 0 16 -17 91 -121 521 -21 88 -48 204 -61 258 l-23 97
-157 0 -158 0 0 -870z"/>
<path d="M2550 1040 l0 -870 115 0 115 0 1 578 c1 498 3 571 14 532 7 -25 73
-238 145 -475 140 -455 190 -622 190 -630 0 -3 63 -5 140 -5 l140 0 0 870 0
870 -115 0 -115 0 -1 -572 0 -573 -30 95 c-17 52 -46 147 -65 210 -70 226
-106 346 -136 445 -16 55 -43 141 -58 190 -16 50 -36 116 -45 148 l-16 57
-139 0 -140 0 0 -870z"/>
<path d="M3650 1040 l0 -870 340 0 340 0 0 175 0 175 -215 0 -215 0 0 190 0
190 195 0 195 0 0 175 0 175 -195 0 -195 0 0 155 0 155 210 0 210 0 0 175 0
175 -335 0 -335 0 0 -870z"/>
<path d="M4420 1735 l0 -175 160 0 160 0 0 -695 0 -695 125 0 125 0 0 695 0
695 160 0 160 0 0 175 0 175 -445 0 -445 0 0 -175z"/>
<path d="M5566 1893 c-3 -10 -14 -63 -25 -118 -11 -55 -55 -264 -96 -465 -42
-201 -83 -396 -90 -435 -8 -38 -40 -191 -71 -340 -31 -148 -58 -291 -61 -318
l-6 -47 126 0 125 0 15 67 c9 38 23 107 33 155 l17 88 187 0 187 0 17 -87 c10
-49 24 -118 33 -155 l15 -68 125 0 126 0 -6 48 c-3 26 -30 169 -61 317 -31
149 -63 302 -71 340 -7 39 -48 234 -90 435 -41 201 -85 410 -96 465 -11 55
-22 108 -25 118 -5 15 -21 17 -154 17 -133 0 -149 -2 -154 -17z m223 -795 c28
-147 51 -269 51 -272 0 -3 -54 -6 -120 -6 -66 0 -120 4 -120 9 0 4 9 53 20
107 10 54 35 185 55 289 43 224 45 233 56 180 4 -22 30 -160 58 -307z"/>
<path d="M6340 1040 l0 -870 125 0 125 0 0 330 0 330 32 0 c18 0 50 -7 73 -15
68 -26 83 -66 202 -508 l36 -137 134 0 133 0 0 25 c0 26 -14 81 -107 420 -56
204 -117 355 -152 377 -19 12 -19 12 1 30 12 10 24 18 28 18 4 0 10 8 13 18 4
9 15 28 27 42 11 14 30 52 42 85 30 83 38 345 13 450 -26 113 -93 217 -149
231 -14 3 -26 10 -26 15 0 5 -11 9 -25 9 -14 0 -25 5 -25 10 0 6 -90 10 -250
10 l-250 0 0 -870z m445 484 c29 -34 39 -91 33 -190 -6 -89 -24 -119 -83 -140
-22 -7 -64 -14 -92 -14 l-53 0 0 191 0 192 85 -6 c79 -4 88 -7 110 -33z"/>
<path d="M7150 1890 c0 -17 26 -97 50 -155 13 -31 42 -113 120 -330 39 -110
75 -209 79 -220 9 -19 21 -53 72 -192 11 -32 25 -68 30 -81 5 -13 9 -185 9
-382 l0 -360 125 0 125 0 0 360 c0 197 4 369 9 382 5 13 19 49 30 81 51 139
63 173 72 192 4 11 40 110 79 220 78 217 107 299 120 330 24 58 50 138 50 155
0 19 -8 20 -137 20 l-138 0 -22 -63 c-11 -34 -37 -107 -56 -162 -20 -55 -56
-158 -82 -229 -25 -71 -47 -131 -49 -133 -2 -2 -27 63 -55 144 -58 166 -89
251 -126 351 -14 37 -25 73 -25 80 0 9 -36 12 -140 12 -132 0 -140 -1 -140
-20z"/>
<path d="M8232 1248 l4 -663 27 -98 c40 -151 77 -211 177 -300 11 -10 34 -20
51 -24 16 -3 32 -10 35 -14 7 -12 221 -12 228 0 3 4 19 11 35 14 17 4 40 14
51 24 91 80 127 135 161 242 45 145 49 219 49 869 l0 612 -124 0 -124 0 -5
-597 c-3 -373 -10 -621 -17 -658 -11 -62 -64 -155 -88 -155 -7 0 -21 -6 -32
-12 -16 -10 -24 -10 -40 0 -11 6 -25 12 -31 12 -29 0 -75 81 -89 155 -7 38
-13 281 -17 658 l-5 597 -125 0 -124 0 3 -662z"/>
<path d="M9290 1040 l0 -870 115 0 115 0 1 578 c1 498 3 571 14 532 7 -25 73
-238 145 -475 140 -455 190 -622 190 -630 0 -3 63 -5 140 -5 l140 0 0 870 0
870 -115 0 -115 0 -1 -572 0 -573 -30 95 c-17 52 -46 147 -65 210 -70 226
-106 346 -136 445 -16 55 -43 141 -58 190 -16 50 -36 116 -45 148 l-16 57
-139 0 -140 0 0 -870z"/>
<path d="M10390 1040 l0 -870 125 0 125 0 0 870 0 870 -125 0 -125 0 0 -870z"/>
<path d="M10760 1735 l0 -175 160 0 160 0 0 -695 0 -695 125 0 125 0 0 695 0
695 160 0 160 0 0 175 0 175 -445 0 -445 0 0 -175z"/>
</g>
</svg>
